<svg width="50" height="50" viewBox="0 0 50 50" fill="none" xmlns="http://www.w3.org/2000/svg">
<path fill-rule="evenodd" clip-rule="evenodd" d="M45 25C45 36.0457 36.0457 45 25 45C13.9543 45 5 36.0457 5 25C5 13.9543 13.9543 5 25 5C36.0457 5 45 13.9543 45 25ZM50 25C50 38.8071 38.8071 50 25 50C11.1929 50 0 38.8071 0 25C0 11.1929 11.1929 0 25 0C38.8071 0 50 11.1929 50 25ZM27.5 12.5C27.5 11.1193 26.3807 10 25 10C23.6193 10 22.5 11.1193 22.5 12.5V25C22.5 25.7869 22.8705 26.5279 23.5 27L33.5 34.5C34.6046 35.3284 36.1716 35.1046 37 34C37.8284 32.8954 37.6046 31.3284 36.5 30.5L27.5 23.75V12.5Z" fill="#2275C2"/>
</svg>
