<svg width="46" height="50" viewBox="0 0 46 50" fill="none" xmlns="http://www.w3.org/2000/svg">
<path fill-rule="evenodd" clip-rule="evenodd" d="M38 4.99994L7.99999 5.00001C6.61928 5.00001 5.5 6.1193 5.5 7.50001V37.5C5.5 38.8807 6.61929 40 8 40L10.5 40H35.5L38 40C39.3807 40 40.5 38.8807 40.5 37.5V7.49994C40.5 6.11923 39.3807 4.99994 38 4.99994ZM33 45.0089V45H13V45.0089V45.0179V45.0268V45.0357V45.0447V45.0536V45.0625V45.0714V45.0804V45.0893V45.0982V45.1072V45.1161V45.125V45.134V45.1429V45.1519V45.1608V45.1697V45.1787V45.1876V45.1966V45.2055V45.2145V45.2234V45.2324V45.2413V45.2503V45.2592V45.2682V45.2772V45.2861V45.2951V45.3041V45.313V45.322V45.331V45.34V45.349V45.358V45.3669V45.3759V45.3849V45.3939V45.4029V45.4119V45.421V45.43V45.439V45.448V45.457V45.4661V45.4751V45.4841V45.4932V45.5022V45.5113V45.5203V45.5294V45.5385V45.5475V45.5566V45.5657V45.5748V45.5838V45.5929V45.602V45.6111V45.6202V45.6294V45.6385V45.6476V45.6567V45.6659V45.675V45.6841V45.6933V45.7025V45.7116V45.7208V45.73V45.7392V45.7483V45.7575V45.7667V45.7759V45.7852V45.7944V45.8036V45.8128V45.8221V45.8313V45.8406V45.8499V45.8591V45.8684V45.8777V45.887V45.8963V45.9056V45.9149V45.9242V45.9336V45.9429V45.9522V45.9616V45.971V45.9803V45.9897V45.9991V46.0085V46.0179V46.0273V46.0367V46.0462V46.0556V46.0651V46.0745V46.084V46.0935V46.1029V46.1124V46.1219V46.1315V46.141V46.1505V46.16V46.1696V46.1792V46.1887V46.1983V46.2079V46.2175V46.2271V46.2367V46.2464V46.256V46.2657V46.2753V46.285V46.2947V46.3044V46.3141V46.3238V46.3335V46.3433V46.353V46.3628V46.3726V46.3823V46.3921V46.402V46.4118V46.4216V46.4314V46.4413V46.4512V46.461V46.4709V46.4808V46.4908V46.5007V46.5106V46.5206V46.5305V46.5405V46.5505V46.5605V46.5705V46.5806V46.5906V46.6007V46.6107V46.6208V46.6309V46.641V46.6511V46.6613V46.6714V46.6816V46.6918V46.702V46.7122V46.7224V46.7326V46.7429V46.7531V46.7634V46.7737V46.784V46.7943V46.8046V46.815V46.8254V46.8357V46.8461V46.8565V46.867V46.8774V46.8879V46.8983V46.9088V46.9193V46.9298V46.9404V46.9509V46.9615V46.9721V46.9826V46.9933V47.0039V47.0145V47.0252V47.0359V47.0466V47.0573V47.068V47.0787V47.0895V47.1003V47.1111V47.1219V47.1327V47.1435V47.1544V47.1653V47.1762V47.1871V47.198V47.209V47.2199V47.2309V47.2419V47.2529V47.264V47.275V47.2861V47.2972V47.3083V47.3194V47.3306V47.3417V47.3529V47.3641V47.3753V47.3866V47.3978V47.4091V47.4204V47.4317V47.4431V47.4544V47.4658V47.4772V47.4886V47.5C13 48.8807 11.8807 50 10.5 50C9.11929 50 8 48.8807 8 47.5V47.4886V47.4772V47.4658V47.4544V47.4431V47.4317V47.4204V47.4091V47.3978V47.3866V47.3753V47.3641V47.3529V47.3417V47.3306V47.3194V47.3083V47.2972V47.2861V47.275V47.264V47.2529V47.2419V47.2309V47.2199V47.209V47.198V47.1871V47.1762V47.1653V47.1544V47.1435V47.1327V47.1219V47.1111V47.1003V47.0895V47.0787V47.068V47.0573V47.0466V47.0359V47.0252V47.0145V47.0039V46.9933V46.9826V46.9721V46.9615V46.9509V46.9404V46.9298V46.9193V46.9088V46.8983V46.8879V46.8774V46.867V46.8565V46.8461V46.8357V46.8254V46.815V46.8046V46.7943V46.784V46.7737V46.7634V46.7531V46.7429V46.7326V46.7224V46.7122V46.702V46.6918V46.6816V46.6714V46.6613V46.6511V46.641V46.6309V46.6208V46.6107V46.6007V46.5906V46.5806V46.5705V46.5605V46.5505V46.5405V46.5305V46.5206V46.5106V46.5007V46.4908V46.4808V46.4709V46.461V46.4512V46.4413V46.4314V46.4216V46.4118V46.402V46.3921V46.3823V46.3726V46.3628V46.353V46.3433V46.3335V46.3238V46.3141V46.3044V46.2947V46.285V46.2753V46.2657V46.256V46.2464V46.2367V46.2271V46.2175V46.2079V46.1983V46.1887V46.1792V46.1696V46.16V46.1505V46.141V46.1315V46.1219V46.1124V46.1029V46.0935V46.084V46.0745V46.0651V46.0556V46.0462V46.0367V46.0273V46.0179V46.0085V45.9991V45.9897V45.9803V45.971V45.9616V45.9522V45.9429V45.9336V45.9242V45.9149V45.9056V45.8963V45.887V45.8777V45.8684V45.8591V45.8499V45.8406V45.8313V45.8221V45.8128V45.8036V45.7944V45.7852V45.7759V45.7667V45.7575V45.7483V45.7392V45.73V45.7208V45.7116V45.7025V45.6933V45.6841V45.675V45.6659V45.6567V45.6476V45.6385V45.6294V45.6202V45.6111V45.602V45.5929V45.5838V45.5748V45.5657V45.5566V45.5475V45.5385V45.5294V45.5203V45.5113V45.5022V45.4932V45.4841V45.4751V45.4661V45.457V45.448V45.439V45.43V45.421V45.4119V45.4029V45.3939V45.3849V45.3759V45.3669V45.358V45.349V45.34V45.331V45.322V45.313V45.3041V45.2951V45.2861V45.2772V45.2682V45.2592V45.2503V45.2413V45.2324V45.2234V45.2145V45.2055V45.1966V45.1876V45.1787V45.1697V45.1608V45.1519V45.1429V45.134V45.125V45.1161V45.1072V45.0982V45.0893V45.0804V45.0714V45.0625V45.0536V45.0447V45.0357V45.0268V45.0179V45.0089V45C3.85786 45 0.5 41.6422 0.5 37.5V7.50001C0.5 3.35788 3.85785 1.58549e-05 7.99998 6.31811e-06L38 -6.10351e-05C42.1421 -7.02739e-05 45.5 3.3578 45.5 7.49994V37.5C45.5 41.6422 42.1421 45 38 45V45.0089V45.0179V45.0268V45.0357V45.0447V45.0536V45.0625V45.0714V45.0804V45.0893V45.0982V45.1072V45.1161V45.125V45.134V45.1429V45.1519V45.1608V45.1697V45.1787V45.1876V45.1966V45.2055V45.2145V45.2234V45.2324V45.2413V45.2503V45.2592V45.2682V45.2772V45.2861V45.2951V45.3041V45.313V45.322V45.331V45.34V45.349V45.358V45.3669V45.3759V45.3849V45.3939V45.4029V45.4119V45.421V45.43V45.439V45.448V45.457V45.4661V45.4751V45.4841V45.4932V45.5022V45.5113V45.5203V45.5294V45.5385V45.5475V45.5566V45.5657V45.5748V45.5838V45.5929V45.602V45.6111V45.6202V45.6294V45.6385V45.6476V45.6567V45.6659V45.675V45.6841V45.6933V45.7025V45.7116V45.7208V45.73V45.7392V45.7483V45.7575V45.7667V45.7759V45.7852V45.7944V45.8036V45.8128V45.8221V45.8313V45.8406V45.8499V45.8591V45.8684V45.8777V45.887V45.8963V45.9056V45.9149V45.9242V45.9336V45.9429V45.9522V45.9616V45.971V45.9803V45.9897V45.9991V46.0085V46.0179V46.0273V46.0367V46.0462V46.0556V46.0651V46.0745V46.084V46.0935V46.1029V46.1124V46.1219V46.1315V46.141V46.1505V46.16V46.1696V46.1792V46.1887V46.1983V46.2079V46.2175V46.2271V46.2367V46.2464V46.256V46.2657V46.2753V46.285V46.2947V46.3044V46.3141V46.3238V46.3335V46.3433V46.353V46.3628V46.3726V46.3823V46.3921V46.402V46.4118V46.4216V46.4314V46.4413V46.4512V46.461V46.4709V46.4808V46.4908V46.5007V46.5106V46.5206V46.5305V46.5405V46.5505V46.5605V46.5705V46.5806V46.5906V46.6007V46.6107V46.6208V46.6309V46.641V46.6511V46.6613V46.6714V46.6816V46.6918V46.702V46.7122V46.7224V46.7326V46.7429V46.7531V46.7634V46.7737V46.784V46.7943V46.8046V46.815V46.8254V46.8357V46.8461V46.8565V46.867V46.8774V46.8879V46.8983V46.9088V46.9193V46.9298V46.9404V46.9509V46.9615V46.9721V46.9826V46.9933V47.0039V47.0145V47.0252V47.0359V47.0466V47.0573V47.068V47.0787V47.0895V47.1003V47.1111V47.1219V47.1327V47.1435V47.1544V47.1653V47.1762V47.1871V47.198V47.209V47.2199V47.2309V47.2419V47.2529V47.264V47.275V47.2861V47.2972V47.3083V47.3194V47.3306V47.3417V47.3529V47.3641V47.3753V47.3866V47.3978V47.4091V47.4204V47.4317V47.4431V47.4544V47.4658V47.4772V47.4886V47.5C38 48.8807 36.8807 50 35.5 50C34.1193 50 33 48.8807 33 47.5V47.4886V47.4772V47.4658V47.4544V47.4431V47.4317V47.4204V47.4091V47.3978V47.3866V47.3753V47.3641V47.3529V47.3417V47.3306V47.3194V47.3083V47.2972V47.2861V47.275V47.264V47.2529V47.2419V47.2309V47.2199V47.209V47.198V47.1871V47.1762V47.1653V47.1544V47.1435V47.1327V47.1219V47.1111V47.1003V47.0895V47.0787V47.068V47.0573V47.0466V47.0359V47.0252V47.0145V47.0039V46.9933V46.9826V46.9721V46.9615V46.9509V46.9404V46.9298V46.9193V46.9088V46.8983V46.8879V46.8774V46.867V46.8565V46.8461V46.8357V46.8254V46.815V46.8046V46.7943V46.784V46.7737V46.7634V46.7531V46.7429V46.7326V46.7224V46.7122V46.702V46.6918V46.6816V46.6714V46.6613V46.6511V46.641V46.6309V46.6208V46.6107V46.6007V46.5906V46.5806V46.5705V46.5605V46.5505V46.5405V46.5305V46.5206V46.5106V46.5007V46.4908V46.4808V46.4709V46.461V46.4512V46.4413V46.4314V46.4216V46.4118V46.402V46.3921V46.3823V46.3726V46.3628V46.353V46.3433V46.3335V46.3238V46.3141V46.3044V46.2947V46.285V46.2753V46.2657V46.256V46.2464V46.2367V46.2271V46.2175V46.2079V46.1983V46.1887V46.1792V46.1696V46.16V46.1505V46.141V46.1315V46.1219V46.1124V46.1029V46.0935V46.084V46.0745V46.0651V46.0556V46.0462V46.0367V46.0273V46.0179V46.0085V45.9991V45.9897V45.9803V45.971V45.9616V45.9522V45.9429V45.9336V45.9242V45.9149V45.9056V45.8963V45.887V45.8777V45.8684V45.8591V45.8499V45.8406V45.8313V45.8221V45.8128V45.8036V45.7944V45.7852V45.7759V45.7667V45.7575V45.7483V45.7392V45.73V45.7208V45.7116V45.7025V45.6933V45.6841V45.675V45.6659V45.6567V45.6476V45.6385V45.6294V45.6202V45.6111V45.602V45.5929V45.5838V45.5748V45.5657V45.5566V45.5475V45.5385V45.5294V45.5203V45.5113V45.5022V45.4932V45.4841V45.4751V45.4661V45.457V45.448V45.439V45.43V45.421V45.4119V45.4029V45.3939V45.3849V45.3759V45.3669V45.358V45.349V45.34V45.331V45.322V45.313V45.3041V45.2951V45.2861V45.2772V45.2682V45.2592V45.2503V45.2413V45.2324V45.2234V45.2145V45.2055V45.1966V45.1876V45.1787V45.1697V45.1608V45.1519V45.1429V45.134V45.125V45.1161V45.1072V45.0982V45.0893V45.0804V45.0714V45.0625V45.0536V45.0447V45.0357V45.0268V45.0179V45.0089ZM20.5 20C19.1193 20 18 21.1193 18 22.5C18 23.8807 19.1193 25 20.5 25C21.8807 25 23 23.8807 23 22.5C23 21.1193 21.8807 20 20.5 20ZM13 22.5C13 18.3579 16.3579 15 20.5 15C23.7655 15 26.5436 17.087 27.5732 20H30.5C31.8807 20 33 21.1193 33 22.5C33 23.8807 31.8807 25 30.5 25H27.5732C26.5436 27.913 23.7655 30 20.5 30C16.3579 30 13 26.6421 13 22.5Z" fill="#2275C2"/>
</svg>
