<svg width="50" height="50" viewBox="0 0 50 50" fill="none" xmlns="http://www.w3.org/2000/svg">
<path fill-rule="evenodd" clip-rule="evenodd" d="M25 50C11.1929 50 0 38.8071 0 25C0 11.1929 11.1929 0 25 0C38.8071 0 50 11.1929 50 25C50 38.8071 38.8071 50 25 50ZM25 5C13.9543 5 5 13.9543 5 25C5 36.0457 13.9543 45 25 45C36.0457 45 45 36.0457 45 25C45 13.9543 36.0457 5 25 5ZM20 12.5C20 11.1193 21.1193 10 22.5 10H28.125C33.3027 10 37.5 14.1973 37.5 19.375C37.5 24.5527 33.3027 28.75 28.125 28.75H25V31.25H30C31.3807 31.25 32.5 32.3693 32.5 33.75C32.5 35.1307 31.3807 36.25 30 36.25H25V38.75C25 40.1307 23.8807 41.25 22.5 41.25C21.1193 41.25 20 40.1307 20 38.75V36.25H15C13.6193 36.25 12.5 35.1307 12.5 33.75C12.5 32.3693 13.6193 31.25 15 31.25H20V28.75H15C13.6193 28.75 12.5 27.6307 12.5 26.25C12.5 24.8693 13.6193 23.75 15 23.75H20V12.5ZM25 23.75H28.125C30.5412 23.75 32.5 21.7912 32.5 19.375C32.5 16.9588 30.5412 15 28.125 15H25V23.75Z" fill="#2275C2"/>
</svg>
